<svg width="15" height="15" viewBox="0 0 15 15" fill="none" xmlns="http://www.w3.org/2000/svg">
<mask id="mask0" style="mask-type:alpha" maskUnits="userSpaceOnUse" x="0" y="0" width="15" height="15">
<path d="M15 7.5C15 3.35786 11.6421 0 7.5 0C3.35786 0 0 3.35786 0 7.5C0 11.6421 3.35786 15 7.5 15C11.6421 15 15 11.6421 15 7.5Z" fill="white"/>
</mask>
<g mask="url(#mask0)">
<path d="M-7.5 0V15H22.5V0H-7.5Z" fill="#00247D"/>
<path d="M-7.5 0L22.5 15L-7.5 0ZM22.5 0L-7.5 15L22.5 0Z" fill="black"/>
<path d="M22.5 0L-7.5 15M-7.5 0L22.5 15L-7.5 0Z" stroke="white" stroke-width="3.2"/>
<mask id="mask1" style="mask-type:alpha" maskUnits="userSpaceOnUse" x="-8" y="0" width="31" height="15">
<path d="M7.5 7.5H22.5V15L7.5 7.5ZM7.5 7.5V15H-7.5L7.5 7.5ZM7.5 7.5H-7.5V0L7.5 7.5ZM7.5 7.5V0H22.5L7.5 7.5Z" fill="white"/>
</mask>
<g mask="url(#mask1)">
<path d="M-7.5 0L22.5 15L-7.5 0ZM22.5 0L-7.5 15L22.5 0Z" fill="black"/>
<path d="M22.5 0L-7.5 15M-7.5 0L22.5 15L-7.5 0Z" stroke="#CF142B" stroke-width="2.13333"/>
</g>
<path d="M7.5 0V15V0ZM-7.5 7.5H22.5H-7.5Z" fill="black"/>
<path d="M-7.5 7.5H22.5M7.5 0V15V0Z" stroke="white" stroke-width="5.33333"/>
<path d="M7.5 0V15V0ZM-7.5 7.5H22.5H-7.5Z" fill="black"/>
<path d="M-7.5 7.5H22.5M7.5 0V15V0Z" stroke="#CF142B" stroke-width="3.2"/>
</g>
</svg>
