<svg width="222" height="30" viewBox="0 0 222 30" fill="none" xmlns="http://www.w3.org/2000/svg">
<path d="M70.1984 23.1402L71.6718 18.8923H77.9417L79.4073 23.1402H81.9779L76.2018 7.08927H73.4039L67.6277 23.1402H70.1984ZM72.3772 16.8546L74.744 10.0048H74.8694L77.2363 16.8546H72.3772ZM92.9209 11.3058H95.2564C95.1859 8.73512 92.913 6.86982 89.6527 6.86982C86.4315 6.86982 83.9628 8.7116 83.9628 11.4782C83.9628 13.7118 85.5616 15.0207 88.1401 15.7182L90.0367 16.2355C91.7531 16.69 93.0776 17.2543 93.0776 18.6807C93.0776 20.2482 91.5807 21.2827 89.5194 21.2827C87.6542 21.2827 86.1024 20.452 85.9613 18.7042H83.5317C83.6884 21.6119 85.9378 23.4067 89.5351 23.4067C93.3049 23.4067 95.4758 21.4238 95.4758 18.7042C95.4758 15.8123 92.8973 14.6915 90.8596 14.1899L89.2922 13.7824C88.0382 13.461 86.3688 12.8732 86.3767 11.3371C86.3767 9.97342 87.6228 8.9624 89.5978 8.9624C91.4396 8.9624 92.7484 9.82451 92.9209 11.3058ZM100.792 7.08927H98.3698V23.1402H100.792V7.08927ZM105.674 23.1402L107.148 18.8923H113.418L114.883 23.1402H117.454L111.678 7.08927H108.88L103.104 23.1402H105.674ZM107.853 16.8546L110.22 10.0048H110.345L112.712 16.8546H107.853ZM125.612 23.1402H135.77V21.0555H128.034V16.1414H135.151V14.0645H128.034V9.17401H135.676V7.08927H125.612V23.1402ZM140.596 7.08927H137.79L142.876 15.1147L137.758 23.1402H140.58L144.436 16.9487H144.561L148.417 23.1402H151.239L146.207 15.1147L151.207 7.08927H148.402L144.561 13.367H144.436L140.596 7.08927ZM153.61 23.1402H156.031V17.4973H159.323C163.046 17.4973 164.887 15.248 164.887 12.2854C164.887 9.33076 163.061 7.08927 159.331 7.08927H153.61V23.1402ZM156.031 15.4439V9.16617H159.072C161.47 9.16617 162.45 10.4672 162.45 12.2854C162.45 14.1037 161.47 15.4439 159.104 15.4439H156.031ZM167.727 23.1402H170.148V17.0662H173.44C173.495 17.0662 173.542 17.0662 173.597 17.0662L176.857 23.1402H179.616L176.058 16.643C178.025 15.9141 179.005 14.2761 179.005 12.1209C179.005 9.16617 177.171 7.08927 173.448 7.08927H167.727V23.1402ZM170.148 14.9815V9.16617H173.189C175.58 9.16617 176.567 10.3026 176.567 12.1209C176.567 13.9313 175.58 14.9815 173.221 14.9815H170.148ZM181.951 23.1402H192.109V21.0555H184.373V16.1414H191.489V14.0645H184.373V9.17401H192.015V7.08927H181.951V23.1402ZM204.004 11.3058H206.339C206.269 8.73512 203.996 6.86982 200.736 6.86982C197.514 6.86982 195.046 8.7116 195.046 11.4782C195.046 13.7118 196.644 15.0207 199.223 15.7182L201.12 16.2355C202.836 16.69 204.161 17.2543 204.161 18.6807C204.161 20.2482 202.664 21.2827 200.602 21.2827C198.737 21.2827 197.185 20.452 197.044 18.7042H194.615C194.771 21.6119 197.021 23.4067 200.618 23.4067C204.388 23.4067 206.559 21.4238 206.559 18.7042C206.559 15.8123 203.98 14.6915 201.943 14.1899L200.375 13.7824C199.121 13.461 197.452 12.8732 197.46 11.3371C197.46 9.97342 198.706 8.9624 200.681 8.9624C202.523 8.9624 203.831 9.82451 204.004 11.3058ZM218.207 11.3058H220.543C220.472 8.73512 218.199 6.86982 214.939 6.86982C211.718 6.86982 209.249 8.7116 209.249 11.4782C209.249 13.7118 210.848 15.0207 213.426 15.7182L215.323 16.2355C217.039 16.69 218.364 17.2543 218.364 18.6807C218.364 20.2482 216.867 21.2827 214.806 21.2827C212.94 21.2827 211.389 20.452 211.247 18.7042H208.818C208.975 21.6119 211.224 23.4067 214.821 23.4067C218.591 23.4067 220.762 21.4238 220.762 18.7042C220.762 15.8123 218.184 14.6915 216.146 14.1899L214.578 13.7824C213.324 13.461 211.655 12.8732 211.663 11.3371C211.663 9.97342 212.909 8.9624 214.884 8.9624C216.726 8.9624 218.035 9.82451 218.207 11.3058Z" fill="white"/>
<path d="M36.2083 5.62592H0L17.5683 24.3921L36.2083 5.62592Z" fill="#DEB86D"/>
<path d="M62.6871 4.82721C51.5072 -5.39437 38.3309 2.9639 33.1403 8.42074L17.5684 24.392C29.3871 33.0165 38.9964 28.5179 42.3238 25.1906L62.6871 4.82721Z" fill="#263E35"/>
</svg>
