<svg width="55" height="55" viewBox="0 0 55 55" fill="none" xmlns="http://www.w3.org/2000/svg">
<path d="M32.0827 4.58398H13.7493C12.5338 4.58398 11.368 5.06687 10.5084 5.92641C9.6489 6.78595 9.16602 7.95174 9.16602 9.16732V45.834C9.16602 47.0496 9.6489 48.2154 10.5084 49.0749C11.368 49.9344 12.5338 50.4173 13.7493 50.4173H41.2493C42.4649 50.4173 43.6307 49.9344 44.4902 49.0749C45.3498 48.2154 45.8327 47.0496 45.8327 45.834V18.334L32.0827 4.58398Z" stroke="#073F37" stroke-width="2" stroke-linecap="round" stroke-linejoin="round"/>
<path d="M32.084 4.58398V18.334H45.834" stroke="#073F37" stroke-width="2" stroke-linecap="round" stroke-linejoin="round"/>
<path d="M36.6673 29.791H18.334" stroke="#073F37" stroke-width="2" stroke-linecap="round" stroke-linejoin="round"/>
<path d="M36.6673 38.959H18.334" stroke="#073F37" stroke-width="2" stroke-linecap="round" stroke-linejoin="round"/>
<path d="M22.9173 20.625H20.6257H18.334" stroke="#073F37" stroke-width="2" stroke-linecap="round" stroke-linejoin="round"/>
</svg>
