<svg width="100" height="100" viewBox="0 0 100 100" fill="none" xmlns="http://www.w3.org/2000/svg">
<rect x="0.5" y="0.5" width="99" height="99" rx="9.5" fill="#073F37" stroke="black"/>
<path d="M53.9305 30.3457H38.2072C37.1647 30.3457 36.1648 30.7598 35.4277 31.497C34.6905 32.2342 34.2764 33.234 34.2764 34.2765V65.7231C34.2764 66.7656 34.6905 67.7654 35.4277 68.5026C36.1648 69.2397 37.1647 69.6539 38.2072 69.6539H61.7921C62.8346 69.6539 63.8344 69.2397 64.5716 68.5026C65.3088 67.7654 65.7229 66.7656 65.7229 65.7231V42.1382L53.9305 30.3457Z" stroke="#E0BD70" stroke-width="1.5" stroke-linecap="round" stroke-linejoin="round"/>
<path d="M53.9316 30.3457V42.1382H65.7241" stroke="#E0BD70" stroke-width="1.5" stroke-linecap="round" stroke-linejoin="round"/>
<path d="M57.8619 51.9668H42.1387" stroke="#E0BD70" stroke-width="1.5" stroke-linecap="round" stroke-linejoin="round"/>
<path d="M57.8619 59.8281H42.1387" stroke="#E0BD70" stroke-width="1.5" stroke-linecap="round" stroke-linejoin="round"/>
<path d="M46.0695 44.1055H44.1041H42.1387" stroke="#E0BD70" stroke-width="1.5" stroke-linecap="round" stroke-linejoin="round"/>
</svg>
