<svg width="38" height="38" viewBox="0 0 38 38" fill="none" xmlns="http://www.w3.org/2000/svg">
<circle cx="18.7134" cy="19.0709" r="18.6607" fill="#F5F5F5"/>
<path fill-rule="evenodd" clip-rule="evenodd" d="M18.796 22.3526L20.1792 20.9694C20.4118 20.7368 20.7775 20.7045 21.0473 20.8926L22.8695 22.1635C23.2145 22.4041 23.2581 22.8981 22.9607 23.1955C22.4808 23.6755 21.7915 23.8839 21.1484 23.667C19.953 23.2638 17.943 22.3922 16.2632 20.7124C14.5834 19.0326 13.7118 17.0226 13.3086 15.8272C13.0917 15.184 13.3001 14.4948 13.78 14.0149C14.0775 13.7174 14.5715 13.7611 14.8121 14.1061L16.083 15.9283C16.2711 16.198 16.2387 16.5638 16.0062 16.7963L14.623 18.1796" fill="#073F37"/>
<path d="M18.796 22.3526L19.9889 21.1597C20.3316 20.8171 20.8706 20.7694 21.2681 21.0466L22.8695 22.1635C23.2145 22.4041 23.2581 22.8981 22.9607 23.1955V23.1955C22.4808 23.6755 21.7915 23.8839 21.1484 23.667C19.953 23.2638 17.943 22.3922 16.2632 20.7124C14.5834 19.0326 13.7118 17.0226 13.3086 15.8272C13.0917 15.184 13.3001 14.4948 13.78 14.0149V14.0149C14.0775 13.7174 14.5715 13.7611 14.8121 14.1061L15.929 15.7075C16.2062 16.105 16.1585 16.644 15.8159 16.9867L14.623 18.1796" stroke="#073F37" stroke-width="1.35714" stroke-linecap="round"/>
</svg>
