<svg width="53" height="53" viewBox="0 0 53 53" fill="none" xmlns="http://www.w3.org/2000/svg">
<rect width="53" height="53" rx="10" fill="#073F37"/>
<path d="M20.479 26.448C20.479 27.408 20.3297 28.2453 20.031 28.96C19.7323 29.664 19.311 30.2507 18.767 30.72C18.223 31.1787 17.5723 31.5253 16.815 31.76C16.0577 31.984 15.2257 32.096 14.319 32.096C13.871 32.096 13.375 32.0747 12.831 32.032C12.2977 32 11.8123 31.9307 11.375 31.824V21.072C11.8123 20.9653 12.2977 20.896 12.831 20.864C13.375 20.8213 13.871 20.8 14.319 20.8C15.2257 20.8 16.0577 20.9173 16.815 21.152C17.5723 21.376 18.223 21.7227 18.767 22.192C19.311 22.6507 19.7323 23.2373 20.031 23.952C20.3297 24.656 20.479 25.488 20.479 26.448ZM14.447 30.736C15.919 30.736 17.0177 30.3627 17.743 29.616C18.4683 28.8587 18.831 27.8027 18.831 26.448C18.831 25.0933 18.4683 24.0427 17.743 23.296C17.0177 22.5387 15.919 22.16 14.447 22.16C14.0097 22.16 13.6683 22.1653 13.423 22.176C13.1883 22.1867 13.023 22.1973 12.927 22.208V30.688C13.023 30.6987 13.1883 30.7093 13.423 30.72C13.6683 30.7307 14.0097 30.736 14.447 30.736Z" fill="#E0BD70"/>
<path d="M22.3333 26.448C22.3333 25.4987 22.4719 24.6613 22.7493 23.936C23.0373 23.2107 23.4213 22.608 23.9012 22.128C24.3919 21.6373 24.9572 21.2693 25.5972 21.024C26.2479 20.7787 26.9359 20.656 27.6613 20.656C28.3759 20.656 29.0479 20.7787 29.6772 21.024C30.3172 21.2693 30.8773 21.6373 31.3573 22.128C31.8372 22.608 32.2159 23.2107 32.4932 23.936C32.7812 24.6613 32.9253 25.4987 32.9253 26.448C32.9253 27.3973 32.7812 28.2347 32.4932 28.96C32.2159 29.6853 31.8372 30.2933 31.3573 30.784C30.8773 31.264 30.3172 31.6267 29.6772 31.872C29.0479 32.1173 28.3759 32.24 27.6613 32.24C26.9359 32.24 26.2479 32.1173 25.5972 31.872C24.9572 31.6267 24.3919 31.264 23.9012 30.784C23.4213 30.2933 23.0373 29.6853 22.7493 28.96C22.4719 28.2347 22.3333 27.3973 22.3333 26.448ZM23.9653 26.448C23.9653 27.12 24.0506 27.7333 24.2213 28.288C24.3919 28.832 24.6319 29.296 24.9412 29.68C25.2612 30.064 25.6453 30.3627 26.0933 30.576C26.5519 30.7787 27.0639 30.88 27.6292 30.88C28.1946 30.88 28.7013 30.7787 29.1493 30.576C29.5972 30.3627 29.9759 30.064 30.2852 29.68C30.6052 29.296 30.8506 28.832 31.0212 28.288C31.1919 27.7333 31.2773 27.12 31.2773 26.448C31.2773 25.776 31.1919 25.168 31.0212 24.624C30.8506 24.0693 30.6052 23.6 30.2852 23.216C29.9759 22.832 29.5972 22.5387 29.1493 22.336C28.7013 22.1227 28.1946 22.016 27.6292 22.016C27.0639 22.016 26.5519 22.1227 26.0933 22.336C25.6453 22.5387 25.2612 22.832 24.9412 23.216C24.6319 23.6 24.3919 24.0693 24.2213 24.624C24.0506 25.168 23.9653 25.776 23.9653 26.448Z" fill="#E0BD70"/>
<path d="M40.0024 32.24C39.2237 32.24 38.5144 32.112 37.8744 31.856C37.2344 31.6 36.685 31.2267 36.2264 30.736C35.7677 30.2453 35.4104 29.6427 35.1544 28.928C34.909 28.2027 34.7864 27.376 34.7864 26.448C34.7864 25.52 34.925 24.6987 35.2024 23.984C35.4904 23.2587 35.8744 22.6507 36.3544 22.16C36.8344 21.6693 37.3944 21.296 38.0344 21.04C38.6744 20.784 39.357 20.656 40.0824 20.656C40.541 20.656 40.9517 20.688 41.3144 20.752C41.6877 20.816 42.0077 20.8907 42.2744 20.976C42.5517 21.0613 42.7757 21.1467 42.9464 21.232C43.117 21.3173 43.2344 21.3813 43.2984 21.424L42.8504 22.704C42.7544 22.64 42.6157 22.5707 42.4344 22.496C42.253 22.4213 42.045 22.3467 41.8104 22.272C41.5864 22.1973 41.3357 22.1387 41.0584 22.096C40.7917 22.0427 40.5197 22.016 40.2424 22.016C39.6557 22.016 39.1277 22.1173 38.6584 22.32C38.189 22.5227 37.789 22.816 37.4584 23.2C37.1277 23.584 36.8717 24.0533 36.6904 24.608C36.5197 25.152 36.4344 25.7653 36.4344 26.448C36.4344 27.1093 36.509 27.712 36.6584 28.256C36.8184 28.8 37.053 29.2693 37.3624 29.664C37.6717 30.048 38.0557 30.3467 38.5144 30.56C38.9837 30.7733 39.5277 30.88 40.1464 30.88C40.861 30.88 41.453 30.8053 41.9224 30.656C42.3917 30.5067 42.7437 30.3733 42.9784 30.256L43.3784 31.536C43.3037 31.5893 43.1704 31.6587 42.9784 31.744C42.7864 31.8187 42.5464 31.8933 42.2584 31.968C41.9704 32.0427 41.6344 32.1067 41.2504 32.16C40.8664 32.2133 40.4504 32.24 40.0024 32.24Z" fill="#E0BD70"/>
</svg>
