<svg width="53" height="53" viewBox="0 0 53 53" fill="none" xmlns="http://www.w3.org/2000/svg">
<rect width="53" height="53" rx="10" fill="#073F37"/>
<path d="M15.319 20.8C16.8763 20.8 18.071 21.0987 18.903 21.696C19.7457 22.2827 20.167 23.1627 20.167 24.336C20.167 24.976 20.0497 25.5254 19.815 25.984C19.591 26.432 19.2603 26.8 18.823 27.088C18.3963 27.3654 17.8737 27.568 17.255 27.696C16.6363 27.824 15.9377 27.888 15.159 27.888H13.927V32H12.375V21.072C12.8123 20.9654 13.2977 20.896 13.831 20.864C14.375 20.8214 14.871 20.8 15.319 20.8ZM15.447 22.16C14.7857 22.16 14.279 22.176 13.927 22.208V26.56H15.095C15.6283 26.56 16.1083 26.528 16.535 26.464C16.9617 26.3894 17.319 26.272 17.607 26.112C17.9057 25.9414 18.135 25.712 18.295 25.424C18.455 25.136 18.535 24.768 18.535 24.32C18.535 23.8934 18.4497 23.5414 18.279 23.264C18.119 22.9867 17.895 22.768 17.607 22.608C17.3297 22.4374 17.0043 22.32 16.631 22.256C16.2577 22.192 15.863 22.16 15.447 22.16Z" fill="#E0BD70"/>
<path d="M31.2134 26.448C31.2134 27.408 31.064 28.2454 30.7654 28.96C30.4667 29.6641 30.0454 30.2507 29.5014 30.72C28.9574 31.1787 28.3067 31.5254 27.5494 31.76C26.792 31.984 25.96 32.096 25.0534 32.096C24.6054 32.096 24.1094 32.0747 23.5654 32.032C23.032 32 22.5467 31.9307 22.1094 31.824V21.072C22.5467 20.9654 23.032 20.896 23.5654 20.864C24.1094 20.8214 24.6054 20.8 25.0534 20.8C25.96 20.8 26.792 20.9174 27.5494 21.152C28.3067 21.376 28.9574 21.7227 29.5014 22.192C30.0454 22.6507 30.4667 23.2374 30.7654 23.952C31.064 24.656 31.2134 25.488 31.2134 26.448ZM25.1814 30.736C26.6534 30.736 27.752 30.3627 28.4774 29.616C29.2027 28.8587 29.5654 27.8027 29.5654 26.448C29.5654 25.0934 29.2027 24.0427 28.4774 23.296C27.752 22.5387 26.6534 22.16 25.1814 22.16C24.744 22.16 24.4027 22.1654 24.1574 22.176C23.9227 22.1867 23.7574 22.1974 23.6614 22.208V30.688C23.7574 30.6987 23.9227 30.7094 24.1574 30.72C24.4027 30.7307 24.744 30.736 25.1814 30.736Z" fill="#E0BD70"/>
<path d="M33.5156 32V20.912H40.2036V22.24H35.0676V25.584H39.6276V26.896H35.0676V32H33.5156Z" fill="#E0BD70"/>
</svg>
