<svg width="17" height="17" viewBox="0 0 17 17" xmlns="http://www.w3.org/2000/svg"><g clip-path="url(#clip0)"><path d="M11.6083 1.60645H4.82254C2.94872 1.60645 1.42969 3.12548 1.42969 4.9993V11.785C1.42969 13.6588 2.94872 15.1779 4.82254 15.1779H11.6083C13.4821 15.1779 15.0011 13.6588 15.0011 11.785V4.9993C15.0011 3.12548 13.4821 1.60645 11.6083 1.60645Z" stroke="#073F37" stroke-width="1.35714" stroke-linecap="round" stroke-linejoin="round"/><path d="M10.9285 7.96556C11.0123 8.5303 10.9158 9.10707 10.6528 9.61382C10.3899 10.1206 9.97386 10.5315 9.4639 10.7882C8.95394 11.0449 8.37603 11.1342 7.81237 11.0435C7.2487 10.9528 6.72799 10.6867 6.3243 10.283C5.9206 9.8793 5.65447 9.35858 5.56377 8.79492C5.47307 8.23126 5.56241 7.65335 5.81909 7.14339C6.07577 6.63343 6.48671 6.21739 6.99347 5.95444C7.50022 5.69149 8.07699 5.59503 8.64173 5.67878C9.21778 5.7642 9.75109 6.03263 10.1629 6.44441C10.5747 6.8562 10.8431 7.38951 10.9285 7.96556Z" stroke="#073F37" stroke-width="1.35714" stroke-linecap="round" stroke-linejoin="round"/><path d="M11.9453 4.66113H11.953" stroke="#073F37" stroke-width="1.35714" stroke-linecap="round" stroke-linejoin="round"/></g><defs><clipPath id="clip0"><rect width="16.2857" height="16.2857" fill="white" transform="translate(0.0703125 0.25)"/></clipPath></defs></svg>
