<svg width="122" height="43" viewBox="0 0 122 43" fill="none" xmlns="http://www.w3.org/2000/svg">
<g clip-path="url(#clip0)">
<circle cx="21.1146" cy="21.8314" r="21.1146" fill="#E0BD70"/>
<path d="M16.7024 11.1169V43.5767H25.5264L25.8415 11.1169C25.1062 10.4866 23.1943 9.22607 21.4295 9.22607C19.6647 9.22607 17.5428 10.4866 16.7024 11.1169Z" fill="#073F37"/>
<path d="M5.98486 21.8334V36.33C8.25389 42.3807 13.2332 43.0531 15.4392 42.3177V12.064C11.6574 12.5682 9.87163 16.476 9.45144 18.3668C7.43452 18.3668 6.30001 20.6779 5.98486 21.8334Z" fill="#073F37"/>
<path d="M36.5562 21.8334V36.33C34.2871 42.3807 29.3079 43.0531 27.1019 42.3177V12.064C30.8836 12.5682 32.6694 16.476 33.0896 18.3668C35.1065 18.3668 36.241 20.6779 36.5562 21.8334Z" fill="#073F37"/>
</g>
<path d="M57.5982 20.0289C57.4857 19.6994 57.3692 19.374 57.2487 19.0526C57.1281 18.7312 57.0116 18.4017 56.8991 18.0643H53.3797C53.2672 18.4017 53.1507 18.7352 53.0302 19.0646C52.9177 19.3861 52.8052 19.7075 52.6927 20.0289H51.1138C51.4271 19.137 51.7244 18.3133 52.0057 17.558C52.2869 16.8027 52.5601 16.0876 52.8253 15.4126C53.0985 14.7377 53.3677 14.0949 53.6328 13.4842C53.898 12.8735 54.1712 12.2709 54.4524 11.6762H55.8867C56.1679 12.2709 56.4411 12.8735 56.7063 13.4842C56.9715 14.0949 57.2366 14.7377 57.5018 15.4126C57.775 16.0876 58.0522 16.8027 58.3334 17.558C58.6227 18.3133 58.924 19.137 59.2374 20.0289H57.5982ZM55.1394 13.2913C54.9546 13.7172 54.7417 14.2355 54.5006 14.8461C54.2676 15.4568 54.0225 16.1197 53.7654 16.8349H56.5134C56.2563 16.1197 56.0072 15.4528 55.7662 14.8341C55.5251 14.2154 55.3162 13.7011 55.1394 13.2913Z" fill="#073F37"/>
<path d="M62.4828 18.8959C63.0292 18.8959 63.427 18.8035 63.676 18.6187C63.9251 18.4339 64.0497 18.1727 64.0497 17.8353C64.0497 17.6344 64.0055 17.4616 63.9171 17.317C63.8367 17.1723 63.7162 17.0438 63.5555 16.9313C63.4028 16.8108 63.214 16.7023 62.989 16.6059C62.764 16.5014 62.5069 16.401 62.2176 16.3045C61.9284 16.2001 61.6471 16.0876 61.3739 15.9671C61.1088 15.8385 60.8717 15.6818 60.6628 15.497C60.4619 15.3122 60.2972 15.0912 60.1687 14.8341C60.0481 14.577 59.9879 14.2676 59.9879 13.906C59.9879 13.1507 60.249 12.5601 60.7713 12.1343C61.2936 11.7003 62.0047 11.4834 62.9047 11.4834C63.427 11.4834 63.889 11.5437 64.2907 11.6642C64.7005 11.7767 65.0219 11.9012 65.255 12.0378L64.7849 13.2672C64.5117 13.1146 64.2104 12.998 63.8809 12.9177C63.5595 12.8373 63.2261 12.7972 62.8806 12.7972C62.4708 12.7972 62.1493 12.8815 61.9163 13.0503C61.6913 13.219 61.5788 13.456 61.5788 13.7614C61.5788 13.9462 61.615 14.1069 61.6873 14.2435C61.7677 14.3721 61.8762 14.4886 62.0127 14.593C62.1574 14.6975 62.3221 14.7939 62.5069 14.8823C62.6998 14.9707 62.9087 15.0551 63.1337 15.1354C63.5274 15.28 63.8769 15.4287 64.1823 15.5814C64.4956 15.726 64.7568 15.9028 64.9657 16.1117C65.1826 16.3126 65.3474 16.5536 65.4599 16.8349C65.5724 17.1081 65.6286 17.4415 65.6286 17.8353C65.6286 18.5906 65.3594 19.1771 64.8211 19.595C64.2907 20.0048 63.5113 20.2097 62.4828 20.2097C62.1373 20.2097 61.8199 20.1856 61.5306 20.1373C61.2494 20.0972 60.9963 20.0449 60.7713 19.9807C60.5544 19.9164 60.3655 19.8521 60.2048 19.7878C60.0441 19.7155 59.9156 19.6512 59.8191 19.595L60.2651 18.3535C60.482 18.4741 60.7753 18.5946 61.1449 18.7151C61.5146 18.8356 61.9605 18.8959 62.4828 18.8959Z" fill="#073F37"/>
<path d="M66.9669 11.6762H68.4856V20.0289H66.9669V11.6762Z" fill="#073F37"/>
<path d="M76.0306 20.0289C75.9181 19.6994 75.8016 19.374 75.6811 19.0526C75.5605 18.7312 75.444 18.4017 75.3315 18.0643H71.8121C71.6996 18.4017 71.5831 18.7352 71.4626 19.0646C71.3501 19.3861 71.2376 19.7075 71.1251 20.0289H69.5462C69.8595 19.137 70.1568 18.3133 70.4381 17.558C70.7193 16.8027 70.9925 16.0876 71.2577 15.4126C71.5309 14.7377 71.8 14.0949 72.0652 13.4842C72.3304 12.8735 72.6036 12.2709 72.8848 11.6762H74.3191C74.6003 12.2709 74.8735 12.8735 75.1387 13.4842C75.4038 14.0949 75.669 14.7377 75.9342 15.4126C76.2074 16.0876 76.4846 16.8027 76.7658 17.558C77.0551 18.3133 77.3564 19.137 77.6698 20.0289H76.0306ZM73.5718 13.2913C73.387 13.7172 73.1741 14.2355 72.933 14.8461C72.7 15.4568 72.4549 16.1197 72.1978 16.8349H74.9458C74.6887 16.1197 74.4396 15.4528 74.1986 14.8341C73.9575 14.2154 73.7486 13.7011 73.5718 13.2913Z" fill="#073F37"/>
<path d="M81.5387 11.6762H83.0573V20.0289H81.5387V11.6762Z" fill="#073F37"/>
<path d="M90.6867 20.0289C90.4135 19.5709 90.1081 19.0807 89.7707 18.5584C89.4332 18.0281 89.0836 17.4978 88.7221 16.9674C88.3605 16.4291 87.9908 15.9108 87.6132 15.4126C87.2436 14.9064 86.89 14.4524 86.5525 14.0507V20.0289H85.058V11.6762H86.2994C86.6208 12.0137 86.9664 12.4155 87.336 12.8815C87.7056 13.3395 88.0752 13.8176 88.4448 14.3158C88.8225 14.814 89.1841 15.3162 89.5296 15.8224C89.8831 16.3206 90.1965 16.7867 90.4697 17.2206V11.6762H91.9763V20.0289H90.6867Z" fill="#073F37"/>
<path d="M96.3664 20.0289C95.7637 18.7272 95.1812 17.3652 94.6187 15.943C94.0643 14.5207 93.546 13.0985 93.0639 11.6762H94.7393C94.9321 12.2387 95.129 12.8132 95.3298 13.3998C95.5307 13.9864 95.7316 14.5649 95.9325 15.1354C96.1334 15.6979 96.3342 16.2443 96.5351 16.7746C96.736 17.3049 96.9329 17.7911 97.1257 18.233C97.3105 17.7911 97.5034 17.3089 97.7043 16.7867C97.9051 16.2563 98.106 15.7059 98.3069 15.1354C98.5158 14.5649 98.7207 13.9864 98.9216 13.3998C99.1225 12.8132 99.3153 12.2387 99.5001 11.6762H101.127C100.637 13.0985 100.115 14.5207 99.5604 15.943C99.006 17.3652 98.4274 18.7272 97.8248 20.0289H96.3664Z" fill="#073F37"/>
<path d="M102.207 20.0289V11.6762H107.571V12.9659H103.726V15.0269H107.149V16.2925H103.726V18.7392H107.86V20.0289H102.207Z" fill="#073F37"/>
<path d="M111.295 18.8959C111.841 18.8959 112.239 18.8035 112.488 18.6187C112.737 18.4339 112.861 18.1727 112.861 17.8353C112.861 17.6344 112.817 17.4616 112.729 17.317C112.648 17.1723 112.528 17.0438 112.367 16.9313C112.215 16.8108 112.026 16.7023 111.801 16.6059C111.576 16.5014 111.319 16.401 111.029 16.3045C110.74 16.2001 110.459 16.0876 110.186 15.9671C109.92 15.8385 109.683 15.6818 109.475 15.497C109.274 15.3122 109.109 15.0912 108.98 14.8341C108.86 14.577 108.8 14.2676 108.8 13.906C108.8 13.1507 109.061 12.5601 109.583 12.1343C110.105 11.7003 110.816 11.4834 111.716 11.4834C112.239 11.4834 112.701 11.5437 113.102 11.6642C113.512 11.7767 113.834 11.9012 114.067 12.0378L113.597 13.2672C113.323 13.1146 113.022 12.998 112.693 12.9177C112.371 12.8373 112.038 12.7972 111.692 12.7972C111.282 12.7972 110.961 12.8815 110.728 13.0503C110.503 13.219 110.391 13.456 110.391 13.7614C110.391 13.9462 110.427 14.1069 110.499 14.2435C110.579 14.3721 110.688 14.4886 110.824 14.593C110.969 14.6975 111.134 14.7939 111.319 14.8823C111.511 14.9707 111.72 15.0551 111.945 15.1354C112.339 15.28 112.689 15.4287 112.994 15.5814C113.307 15.726 113.568 15.9028 113.777 16.1117C113.994 16.3126 114.159 16.5536 114.272 16.8349C114.384 17.1081 114.44 17.4415 114.44 17.8353C114.44 18.5906 114.171 19.1771 113.633 19.595C113.102 20.0048 112.323 20.2097 111.295 20.2097C110.949 20.2097 110.632 20.1856 110.342 20.1373C110.061 20.0972 109.808 20.0449 109.583 19.9807C109.366 19.9164 109.177 19.8521 109.017 19.7878C108.856 19.7155 108.727 19.6512 108.631 19.595L109.077 18.3535C109.294 18.4741 109.587 18.5946 109.957 18.7151C110.326 18.8356 110.772 18.8959 111.295 18.8959Z" fill="#073F37"/>
<path d="M121.6 11.6762V12.99H119.033V20.0289H117.502V12.99H114.935V11.6762H121.6Z" fill="#073F37"/>
<path d="M54.5729 32.0581C54.131 32.0581 53.685 32.042 53.2351 32.0098C52.7851 31.9857 52.3914 31.9295 52.0539 31.8411V23.7295C52.2307 23.6974 52.4195 23.6693 52.6204 23.6452C52.8213 23.613 53.0262 23.5889 53.2351 23.5728C53.444 23.5568 53.6489 23.5447 53.8498 23.5367C54.0587 23.5287 54.2555 23.5246 54.4404 23.5246C54.9466 23.5246 55.4166 23.5648 55.8505 23.6452C56.2844 23.7175 56.6581 23.842 56.9715 24.0188C57.2929 24.1956 57.542 24.4286 57.7187 24.7179C57.8955 25.0071 57.9839 25.3647 57.9839 25.7906C57.9839 26.1843 57.8875 26.5218 57.6946 26.803C57.5098 27.0842 57.2487 27.3092 56.9112 27.478C57.4174 27.6467 57.791 27.8958 58.0321 28.2253C58.2732 28.5547 58.3937 28.9725 58.3937 29.4787C58.3937 30.3385 58.0803 30.9854 57.4536 31.4193C56.8268 31.8451 55.8666 32.0581 54.5729 32.0581ZM53.5484 28.2011V30.7443C53.7172 30.7604 53.898 30.7724 54.0908 30.7805C54.2837 30.7885 54.4604 30.7925 54.6211 30.7925C54.9345 30.7925 55.2238 30.7724 55.489 30.7322C55.7622 30.6921 55.9952 30.6238 56.188 30.5273C56.3889 30.4229 56.5456 30.2863 56.6581 30.1175C56.7786 29.9488 56.8389 29.7319 56.8389 29.4667C56.8389 28.9926 56.6661 28.6632 56.3206 28.4784C55.9751 28.2936 55.497 28.2011 54.8863 28.2011H53.5484ZM53.5484 27.0079H54.6211C55.1997 27.0079 55.6537 26.9276 55.9831 26.7669C56.3126 26.5981 56.4773 26.3008 56.4773 25.8749C56.4773 25.4732 56.3045 25.1879 55.959 25.0192C55.6215 24.8505 55.1796 24.7661 54.6332 24.7661C54.4002 24.7661 54.1913 24.7701 54.0065 24.7781C53.8297 24.7862 53.677 24.7982 53.5484 24.8143V27.0079Z" fill="#073F37"/>
<path d="M65.5197 31.9616C65.4072 31.6322 65.2907 31.3068 65.1701 30.9854C65.0496 30.6639 64.9331 30.3345 64.8206 29.997H61.3012C61.1887 30.3345 61.0722 30.668 60.9516 30.9974C60.8391 31.3188 60.7266 31.6402 60.6141 31.9616H59.0352C59.3486 31.0697 59.6459 30.2461 59.9271 29.4908C60.2084 28.7355 60.4816 28.0204 60.7467 27.3454C61.0199 26.6704 61.2891 26.0276 61.5543 25.4169C61.8194 24.8063 62.0926 24.2036 62.3739 23.609H63.8082C64.0894 24.2036 64.3626 24.8063 64.6277 25.4169C64.8929 26.0276 65.1581 26.6704 65.4232 27.3454C65.6964 28.0204 65.9736 28.7355 66.2549 29.4908C66.5442 30.2461 66.8455 31.0697 67.1588 31.9616H65.5197ZM63.0609 25.2241C62.8761 25.65 62.6631 26.1682 62.4221 26.7789C62.1891 27.3896 61.944 28.0525 61.6869 28.7676H64.4349C64.1778 28.0525 63.9287 27.3856 63.6876 26.7669C63.4466 26.1481 63.2377 25.6339 63.0609 25.2241Z" fill="#073F37"/>
<path d="M73.8433 31.9616C73.5701 31.5036 73.2647 31.0135 72.9273 30.4912C72.5898 29.9609 72.2403 29.4305 71.8787 28.9002C71.5171 28.3619 71.1475 27.8436 70.7698 27.3454C70.4002 26.8392 70.0466 26.3852 69.7092 25.9834V31.9616H68.2146V23.609H69.456C69.7775 23.9465 70.123 24.3482 70.4926 24.8143C70.8622 25.2723 71.2318 25.7504 71.6015 26.2486C71.9791 26.7468 72.3407 27.249 72.6862 27.7552C73.0398 28.2534 73.3531 28.7194 73.6263 29.1533V23.609H75.1329V31.9616H73.8433Z" fill="#073F37"/>
<path d="M82.1264 31.9616C81.9175 31.6402 81.6764 31.3027 81.4032 30.9492C81.13 30.5956 80.8408 30.2541 80.5354 29.9247C80.2381 29.5953 79.9288 29.2819 79.6074 28.9846C79.286 28.6873 78.9686 28.4301 78.6552 28.2132V31.9616H77.1365V23.609H78.6552V27.0561C78.9204 26.791 79.1976 26.5097 79.4868 26.2124C79.7761 25.9071 80.0614 25.6017 80.3426 25.2964C80.6319 24.983 80.9051 24.6817 81.1622 24.3924C81.4193 24.1032 81.6523 23.842 81.8613 23.609H83.6812C83.4161 23.9143 83.1348 24.2317 82.8375 24.5612C82.5402 24.8906 82.2349 25.2241 81.9215 25.5616C81.6081 25.891 81.2908 26.2205 80.9693 26.5499C80.656 26.8793 80.3466 27.1927 80.0413 27.49C80.3788 27.7472 80.7202 28.0485 81.0658 28.394C81.4193 28.7315 81.7648 29.0971 82.1023 29.4908C82.4398 29.8765 82.7612 30.2823 83.0665 30.7081C83.3799 31.126 83.6652 31.5438 83.9223 31.9616H82.1264Z" fill="#073F37"/>
<defs>
<clipPath id="clip0">
<rect y="0.716797" width="42.2292" height="42.2292" rx="21.1146" fill="white"/>
</clipPath>
</defs>
</svg>
