<svg width="122" height="43" viewBox="0 0 122 43" fill="none" xmlns="http://www.w3.org/2000/svg">
<g clip-path="url(#clip0)">
<circle cx="21.1146" cy="21.3978" r="21.1146" fill="#E0BD70"/>
<path d="M16.7031 10.6838V43.1436H25.5271L25.8423 10.6838C25.1069 10.0535 23.1951 8.79297 21.4303 8.79297C19.6655 8.79297 17.5435 10.0535 16.7031 10.6838Z" fill="#073F37"/>
<path d="M5.98438 21.3993V35.8959C8.25341 41.9467 13.2327 42.619 15.4387 41.8836V11.6299C11.657 12.1341 9.87114 16.0419 9.45095 17.9327C7.43403 17.9327 6.29952 20.2438 5.98438 21.3993Z" fill="#073F37"/>
<path d="M36.5566 21.3993V35.8959C34.2876 41.9467 29.3083 42.619 27.1023 41.8836V11.6299C30.8841 12.1341 32.6699 16.0419 33.0901 17.9327C35.107 17.9327 36.2415 20.2438 36.5566 21.3993Z" fill="#073F37"/>
</g>
<path d="M57.5977 19.5953C57.4852 19.2658 57.3687 18.9404 57.2482 18.619C57.1277 18.2976 57.0111 17.9681 56.8987 17.6307H53.3792C53.2667 17.9681 53.1502 18.3016 53.0297 18.631C52.9172 18.9525 52.8047 19.2739 52.6922 19.5953H51.1133C51.4267 18.7034 51.724 17.8798 52.0052 17.1244C52.2864 16.3691 52.5596 15.654 52.8248 14.979C53.098 14.3041 53.3672 13.6613 53.6323 13.0506C53.8975 12.4399 54.1707 11.8373 54.4519 11.2427H55.8862C56.1674 11.8373 56.4406 12.4399 56.7058 13.0506C56.971 13.6613 57.2361 14.3041 57.5013 14.979C57.7745 15.654 58.0517 16.3691 58.3329 17.1244C58.6222 17.8798 58.9235 18.7034 59.2369 19.5953H57.5977ZM55.1389 12.8577C54.9541 13.2836 54.7412 13.8019 54.5001 14.4126C54.2671 15.0232 54.022 15.6861 53.7649 16.4013H56.513C56.2558 15.6861 56.0067 15.0192 55.7657 14.4005C55.5246 13.7818 55.3157 13.2675 55.1389 12.8577Z" fill="white"/>
<path d="M62.4823 18.4623C63.0287 18.4623 63.4265 18.3699 63.6756 18.1851C63.9246 18.0003 64.0492 17.7391 64.0492 17.4017C64.0492 17.2008 64.005 17.028 63.9166 16.8834C63.8363 16.7388 63.7157 16.6102 63.555 16.4977C63.4024 16.3772 63.2135 16.2687 62.9885 16.1723C62.7636 16.0678 62.5064 15.9674 62.2172 15.8709C61.9279 15.7665 61.6467 15.654 61.3735 15.5335C61.1083 15.4049 60.8713 15.2482 60.6623 15.0634C60.4615 14.8786 60.2967 14.6576 60.1682 14.4005C60.0476 14.1434 59.9874 13.834 59.9874 13.4724C59.9874 12.7171 60.2485 12.1265 60.7708 11.7007C61.2931 11.2668 62.0042 11.0498 62.9042 11.0498C63.4265 11.0498 63.8885 11.1101 64.2903 11.2306C64.7 11.3431 65.0215 11.4676 65.2545 11.6042L64.7844 12.8336C64.5112 12.681 64.2099 12.5644 63.8805 12.4841C63.559 12.4037 63.2256 12.3636 62.8801 12.3636C62.4703 12.3636 62.1489 12.4479 61.9158 12.6167C61.6909 12.7854 61.5784 13.0225 61.5784 13.3278C61.5784 13.5126 61.6145 13.6733 61.6868 13.8099C61.7672 13.9385 61.8757 14.055 62.0123 14.1594C62.1569 14.2639 62.3216 14.3603 62.5064 14.4487C62.6993 14.5371 62.9082 14.6215 63.1332 14.7018C63.5269 14.8465 63.8764 14.9951 64.1818 15.1478C64.4951 15.2924 64.7563 15.4692 64.9652 15.6781C65.1822 15.879 65.3469 16.12 65.4594 16.4013C65.5719 16.6745 65.6281 17.0079 65.6281 17.4017C65.6281 18.157 65.3589 18.7435 64.8206 19.1614C64.2902 19.5712 63.5108 19.7761 62.4823 19.7761C62.1368 19.7761 61.8194 19.752 61.5301 19.7038C61.2489 19.6636 60.9958 19.6113 60.7708 19.5471C60.5539 19.4828 60.365 19.4185 60.2043 19.3542C60.0436 19.2819 59.9151 19.2176 59.8186 19.1614L60.2646 17.9199C60.4815 18.0405 60.7748 18.161 61.1445 18.2815C61.5141 18.402 61.96 18.4623 62.4823 18.4623Z" fill="white"/>
<path d="M66.9665 11.2427H68.4851V19.5953H66.9665V11.2427Z" fill="white"/>
<path d="M76.0301 19.5953C75.9176 19.2658 75.8011 18.9404 75.6806 18.619C75.56 18.2976 75.4435 17.9681 75.331 17.6307H71.8116C71.6991 17.9681 71.5826 18.3016 71.4621 18.631C71.3496 18.9525 71.2371 19.2739 71.1246 19.5953H69.5457C69.859 18.7034 70.1563 17.8798 70.4376 17.1244C70.7188 16.3691 70.992 15.654 71.2572 14.979C71.5304 14.3041 71.7996 13.6613 72.0647 13.0506C72.3299 12.4399 72.6031 11.8373 72.8843 11.2427H74.3186C74.5998 11.8373 74.873 12.4399 75.1382 13.0506C75.4034 13.6613 75.6685 14.3041 75.9337 14.979C76.2069 15.654 76.4841 16.3691 76.7653 17.1244C77.0546 17.8798 77.3559 18.7034 77.6693 19.5953H76.0301ZM73.5713 12.8577C73.3865 13.2836 73.1736 13.8019 72.9325 14.4126C72.6995 15.0232 72.4544 15.6861 72.1973 16.4013H74.9453C74.6882 15.6861 74.4391 15.0192 74.1981 14.4005C73.957 13.7818 73.7481 13.2675 73.5713 12.8577Z" fill="white"/>
<path d="M81.5382 11.2427H83.0568V19.5953H81.5382V11.2427Z" fill="white"/>
<path d="M90.6862 19.5953C90.413 19.1373 90.1076 18.6471 89.7702 18.1248C89.4327 17.5945 89.0832 17.0642 88.7216 16.5339C88.36 15.9955 87.9904 15.4772 87.6127 14.979C87.2431 14.4728 86.8895 14.0188 86.5521 13.6171V19.5953H85.0575V11.2427H86.2989C86.6204 11.5801 86.9659 11.9819 87.3355 12.4479C87.7051 12.9059 88.0747 13.384 88.4444 13.8822C88.822 14.3804 89.1836 14.8826 89.5291 15.3888C89.8827 15.887 90.196 16.3531 90.4692 16.787V11.2427H91.9758V19.5953H90.6862Z" fill="white"/>
<path d="M96.3659 19.5953C95.7633 18.2936 95.1807 16.9316 94.6182 15.5094C94.0638 14.0871 93.5455 12.6649 93.0634 11.2427H94.7388C94.9316 11.8051 95.1285 12.3796 95.3294 12.9662C95.5302 13.5528 95.7311 14.1313 95.932 14.7018C96.1329 15.2643 96.3338 15.8107 96.5346 16.341C96.7355 16.8713 96.9324 17.3575 97.1252 17.7994C97.31 17.3575 97.5029 16.8754 97.7038 16.3531C97.9046 15.8227 98.1055 15.2723 98.3064 14.7018C98.5153 14.1313 98.7202 13.5528 98.9211 12.9662C99.122 12.3796 99.3148 11.8051 99.4996 11.2427H101.127C100.637 12.6649 100.114 14.0871 99.5599 15.5094C99.0055 16.9316 98.4269 18.2936 97.8243 19.5953H96.3659Z" fill="white"/>
<path d="M102.207 19.5953V11.2427H107.57V12.5323H103.726V14.5933H107.149V15.8589H103.726V18.3056H107.86V19.5953H102.207Z" fill="white"/>
<path d="M111.294 18.4623C111.84 18.4623 112.238 18.3699 112.487 18.1851C112.736 18.0003 112.861 17.7391 112.861 17.4017C112.861 17.2008 112.817 17.028 112.728 16.8834C112.648 16.7388 112.527 16.6102 112.367 16.4977C112.214 16.3772 112.025 16.2687 111.8 16.1723C111.575 16.0678 111.318 15.9674 111.029 15.8709C110.74 15.7665 110.458 15.654 110.185 15.5335C109.92 15.4049 109.683 15.2482 109.474 15.0634C109.273 14.8786 109.108 14.6576 108.98 14.4005C108.859 14.1434 108.799 13.834 108.799 13.4724C108.799 12.7171 109.06 12.1265 109.583 11.7007C110.105 11.2668 110.816 11.0498 111.716 11.0498C112.238 11.0498 112.7 11.1101 113.102 11.2306C113.512 11.3431 113.833 11.4676 114.066 11.6042L113.596 12.8336C113.323 12.681 113.022 12.5644 112.692 12.4841C112.371 12.4037 112.037 12.3636 111.692 12.3636C111.282 12.3636 110.961 12.4479 110.728 12.6167C110.503 12.7854 110.39 13.0225 110.39 13.3278C110.39 13.5126 110.426 13.6733 110.499 13.8099C110.579 13.9385 110.687 14.055 110.824 14.1594C110.969 14.2639 111.133 14.3603 111.318 14.4487C111.511 14.5371 111.72 14.6215 111.945 14.7018C112.339 14.8465 112.688 14.9951 112.993 15.1478C113.307 15.2924 113.568 15.4692 113.777 15.6781C113.994 15.879 114.159 16.12 114.271 16.4013C114.384 16.6745 114.44 17.0079 114.44 17.4017C114.44 18.157 114.171 18.7435 113.632 19.1614C113.102 19.5712 112.323 19.7761 111.294 19.7761C110.948 19.7761 110.631 19.752 110.342 19.7038C110.061 19.6636 109.807 19.6113 109.583 19.5471C109.366 19.4828 109.177 19.4185 109.016 19.3542C108.855 19.2819 108.727 19.2176 108.63 19.1614L109.076 17.9199C109.293 18.0405 109.587 18.161 109.956 18.2815C110.326 18.402 110.772 18.4623 111.294 18.4623Z" fill="white"/>
<path d="M121.6 11.2427V12.5564H119.032V19.5953H117.502V12.5564H114.934V11.2427H121.6Z" fill="white"/>
<path d="M54.5724 31.6245C54.1305 31.6245 53.6846 31.6084 53.2346 31.5763C52.7846 31.5521 52.3909 31.4959 52.0534 31.4075V23.2959C52.2302 23.2638 52.419 23.2357 52.6199 23.2116C52.8208 23.1794 53.0257 23.1553 53.2346 23.1393C53.4435 23.1232 53.6484 23.1111 53.8493 23.1031C54.0582 23.0951 54.2551 23.091 54.4399 23.091C54.9461 23.091 55.4161 23.1312 55.8501 23.2116C56.284 23.2839 56.6576 23.4084 56.971 23.5852C57.2924 23.762 57.5415 23.995 57.7182 24.2843C57.895 24.5735 57.9834 24.9311 57.9834 25.357C57.9834 25.7507 57.887 26.0882 57.6941 26.3694C57.5093 26.6507 57.2482 26.8756 56.9107 27.0444C57.4169 27.2131 57.7906 27.4622 58.0316 27.7917C58.2727 28.1211 58.3932 28.5389 58.3932 29.0452C58.3932 29.9049 58.0798 30.5518 57.4531 30.9857C56.8263 31.4115 55.8661 31.6245 54.5724 31.6245ZM53.548 27.7676V30.3107C53.7167 30.3268 53.8975 30.3388 54.0903 30.3469C54.2832 30.3549 54.46 30.3589 54.6207 30.3589C54.934 30.3589 55.2233 30.3388 55.4885 30.2987C55.7617 30.2585 55.9947 30.1902 56.1875 30.0938C56.3884 29.9893 56.5451 29.8527 56.6576 29.684C56.7781 29.5152 56.8384 29.2983 56.8384 29.0331C56.8384 28.559 56.6656 28.2296 56.3201 28.0448C55.9746 27.86 55.4965 27.7676 54.8858 27.7676H53.548ZM53.548 26.5743H54.6207C55.1992 26.5743 55.6532 26.494 55.9826 26.3333C56.3121 26.1645 56.4768 25.8672 56.4768 25.4414C56.4768 25.0396 56.304 24.7543 55.9585 24.5856C55.621 24.4169 55.1791 24.3325 54.6327 24.3325C54.3997 24.3325 54.1908 24.3365 54.006 24.3445C53.8292 24.3526 53.6765 24.3646 53.548 24.3807V26.5743Z" fill="white"/>
<path d="M65.5192 31.528C65.4067 31.1986 65.2902 30.8732 65.1696 30.5518C65.0491 30.2304 64.9326 29.9009 64.8201 29.5634H61.3007C61.1882 29.9009 61.0717 30.2344 60.9511 30.5638C60.8386 30.8852 60.7262 31.2066 60.6137 31.528H59.0347C59.3481 30.6361 59.6454 29.8125 59.9266 29.0572C60.2079 28.3019 60.4811 27.5868 60.7462 26.9118C61.0194 26.2368 61.2886 25.594 61.5538 24.9833C61.8189 24.3727 62.0921 23.77 62.3734 23.1754H63.8077C64.0889 23.77 64.3621 24.3727 64.6273 24.9833C64.8924 25.594 65.1576 26.2368 65.4227 26.9118C65.6959 27.5868 65.9732 28.3019 66.2544 29.0572C66.5437 29.8125 66.845 30.6361 67.1584 31.528H65.5192ZM63.0604 24.7905C62.8756 25.2164 62.6626 25.7346 62.4216 26.3453C62.1886 26.956 61.9435 27.6189 61.6864 28.334H64.4344C64.1773 27.6189 63.9282 26.952 63.6871 26.3333C63.4461 25.7145 63.2372 25.2003 63.0604 24.7905Z" fill="white"/>
<path d="M73.8428 31.528C73.5696 31.07 73.2643 30.5799 72.9268 30.0576C72.5893 29.5273 72.2398 28.9969 71.8782 28.4666C71.5166 27.9283 71.147 27.41 70.7693 26.9118C70.3997 26.4056 70.0461 25.9516 69.7087 25.5498V31.528H68.2141V23.1754H69.4556C69.777 23.5129 70.1225 23.9147 70.4921 24.3807C70.8617 24.8387 71.2313 25.3168 71.601 25.815C71.9786 26.3132 72.3402 26.8154 72.6857 27.3216C73.0393 27.8198 73.3526 28.2858 73.6258 28.7197V23.1754H75.1324V31.528H73.8428Z" fill="white"/>
<path d="M82.1259 31.528C81.917 31.2066 81.676 30.8692 81.4028 30.5156C81.1296 30.1621 80.8403 29.8206 80.535 29.4911C80.2376 29.1617 79.9283 28.8483 79.6069 28.551C79.2855 28.2537 78.9681 27.9966 78.6547 27.7796V31.528H77.136V23.1754H78.6547V26.6225C78.9199 26.3574 79.1971 26.0761 79.4864 25.7788C79.7756 25.4735 80.0609 25.1682 80.3421 24.8628C80.6314 24.5494 80.9046 24.2481 81.1617 23.9589C81.4188 23.6696 81.6518 23.4084 81.8608 23.1754H83.6807C83.4156 23.4808 83.1343 23.7981 82.837 24.1276C82.5397 24.457 82.2344 24.7905 81.921 25.128C81.6077 25.4574 81.2903 25.7869 80.9689 26.1163C80.6555 26.4458 80.3461 26.7591 80.0408 27.0564C80.3783 27.3136 80.7198 27.6149 81.0653 27.9604C81.4188 28.2979 81.7643 28.6635 82.1018 29.0572C82.4393 29.4429 82.7607 29.8487 83.066 30.2745C83.3794 30.6924 83.6647 31.1102 83.9218 31.528H82.1259Z" fill="white"/>
<defs>
<clipPath id="clip0">
<rect y="0.283203" width="42.2292" height="42.2292" rx="21.1146" fill="white"/>
</clipPath>
</defs>
</svg>
