<svg width="18" height="18" viewBox="0 0 18 18" fill="none" xmlns="http://www.w3.org/2000/svg">
<g id="user">
<path id="Path 4" d="M4.125 14.625C4.125 14.625 6.75 13.5 7.5 12.75C8.25 12 6 12 6 8.25C6 4.5 9 4.5 9 4.5C9 4.5 12 4.5 12 8.25C12 12 9.75 12 10.5 12.75C11.25 13.5 13.875 14.625 13.875 14.625" stroke="#073F37" stroke-width="1.5" stroke-linecap="round"/>
<path id="Oval" fill-rule="evenodd" clip-rule="evenodd" d="M9 16.5C13.1421 16.5 16.5 13.1421 16.5 9C16.5 4.85786 13.1421 1.5 9 1.5C4.85786 1.5 1.5 4.85786 1.5 9C1.5 13.1421 4.85786 16.5 9 16.5Z" stroke="#073F37" stroke-width="1.5"/>
</g>
</svg>
