<svg width="179" height="24" viewBox="0 0 179 24" fill="none" xmlns="http://www.w3.org/2000/svg">
<path d="M56.601 18.9517L57.7891 15.5266H62.8445L64.0262 18.9517H66.099L61.4416 6.00969H59.1856L54.5283 18.9517H56.601ZM58.3578 13.8836L60.2662 8.36048H60.3673L62.2758 13.8836H58.3578ZM74.9223 9.40949H76.8055C76.7486 7.33675 74.916 5.83275 72.2872 5.83275C69.6899 5.83275 67.6993 7.31779 67.6993 9.54851C67.6993 11.3495 68.9885 12.4048 71.0675 12.9673L72.5968 13.3843C73.9807 13.7509 75.0487 14.2059 75.0487 15.356C75.0487 16.6198 73.8417 17.454 72.1797 17.454C70.6757 17.454 69.4245 16.7841 69.3108 15.3749H67.3518C67.4782 17.7194 69.2918 19.1665 72.1924 19.1665C75.232 19.1665 76.9824 17.5677 76.9824 15.3749C76.9824 13.0431 74.9034 12.1394 73.2603 11.735L71.9965 11.4064C70.9854 11.1473 69.6394 10.6734 69.6457 9.43477C69.6457 8.3352 70.6505 7.52001 72.2429 7.52001C73.728 7.52001 74.7833 8.21514 74.9223 9.40949ZM81.2685 6.00969H79.3158V18.9517H81.2685V6.00969ZM85.2054 18.9517L86.3935 15.5266H91.4489L92.6306 18.9517H94.7034L90.046 6.00969H87.79L83.1327 18.9517H85.2054ZM86.9622 13.8836L88.8706 8.36048H88.9717L90.8802 13.8836H86.9622ZM101.282 18.9517H109.472V17.2707H103.234V13.3085H108.972V11.6339H103.234V7.69063H109.396V6.00969H101.282V18.9517ZM113.363 6.00969H111.1L115.202 12.4807L111.075 18.9517H113.35L116.459 13.9594H116.56L119.669 18.9517H121.944L117.887 12.4807L121.919 6.00969H119.657L116.56 11.0715H116.459L113.363 6.00969ZM123.856 18.9517H125.809V14.4018H128.463C131.464 14.4018 132.949 12.5881 132.949 10.1994C132.949 7.81702 131.477 6.00969 128.469 6.00969H123.856V18.9517ZM125.809 12.7461V7.68431H128.261C130.194 7.68431 130.984 8.73332 130.984 10.1994C130.984 11.6655 130.194 12.7461 128.286 12.7461H125.809ZM135.239 18.9517H137.191V14.0542H139.845C139.89 14.0542 139.928 14.0542 139.972 14.0542L142.601 18.9517H144.825L141.956 13.7129C143.542 13.1252 144.332 11.8045 144.332 10.0667C144.332 7.68431 142.853 6.00969 139.852 6.00969H135.239V18.9517ZM137.191 12.3732V7.68431H139.643C141.571 7.68431 142.367 8.60062 142.367 10.0667C142.367 11.5265 141.571 12.3732 139.668 12.3732H137.191ZM146.708 18.9517H154.898V17.2707H148.661V13.3085H154.399V11.6339H148.661V7.69063H154.822V6.00969H146.708V18.9517ZM164.489 9.40949H166.372C166.315 7.33675 164.483 5.83275 161.854 5.83275C159.257 5.83275 157.266 7.31779 157.266 9.54851C157.266 11.3495 158.555 12.4048 160.634 12.9673L162.164 13.3843C163.548 13.7509 164.616 14.2059 164.616 15.356C164.616 16.6198 163.409 17.454 161.747 17.454C160.243 17.454 158.991 16.7841 158.878 15.3749H156.919C157.045 17.7194 158.859 19.1665 161.759 19.1665C164.799 19.1665 166.549 17.5677 166.549 15.3749C166.549 13.0431 164.47 12.1394 162.827 11.735L161.563 11.4064C160.552 11.1473 159.206 10.6734 159.213 9.43477C159.213 8.3352 160.217 7.52001 161.81 7.52001C163.295 7.52001 164.35 8.21514 164.489 9.40949ZM175.941 9.40949H177.825C177.768 7.33675 175.935 5.83275 173.306 5.83275C170.709 5.83275 168.718 7.31779 168.718 9.54851C168.718 11.3495 170.008 12.4048 172.087 12.9673L173.616 13.3843C175 13.7509 176.068 14.2059 176.068 15.356C176.068 16.6198 174.861 17.454 173.199 17.454C171.695 17.454 170.444 16.7841 170.33 15.3749H168.371C168.497 17.7194 170.311 19.1665 173.211 19.1665C176.251 19.1665 178.001 17.5677 178.001 15.3749C178.001 13.0431 175.922 12.1394 174.279 11.735L173.016 11.4064C172.004 11.1473 170.658 10.6734 170.665 9.43477C170.665 8.3352 171.67 7.52001 173.262 7.52001C174.747 7.52001 175.802 8.21514 175.941 9.40949Z" fill="#263E35"/>
<path d="M29.195 4.53516H0L14.1655 19.6665L29.195 4.53516Z" fill="#DEB86D"/>
<path d="M50.5455 3.89216C41.5311 -4.34956 30.907 2.38977 26.7218 6.78965L14.166 19.6674C23.6955 26.6214 31.4436 22.9942 34.1264 20.3113L50.5455 3.89216Z" fill="#263E35"/>
</svg>
