<svg width="18" height="18" viewBox="0 0 18 18" fill="none" xmlns="http://www.w3.org/2000/svg">
<path d="M2.16016 10.7999V11.9599C2.16016 12.5122 2.60787 12.9599 3.16016 12.9599H6.48016M2.16016 10.7999V3.87988C2.16016 3.3276 2.60787 2.87988 3.16016 2.87988H14.8402C15.3924 2.87988 15.8402 3.3276 15.8402 3.87988V10.7999M2.16016 10.7999H15.8402M15.8402 10.7999V11.9599C15.8402 12.5122 15.3924 12.9599 14.8402 12.9599H11.5202M6.48016 12.9599V15.1199M6.48016 12.9599H11.5202M6.48016 15.1199H11.5202M6.48016 15.1199H3.60016M11.5202 15.1199V12.9599M11.5202 15.1199H14.4002" stroke="#073F37" stroke-width="1.5"/>
</svg>
