<svg width="55" height="55" viewBox="0 0 55 55" fill="none" xmlns="http://www.w3.org/2000/svg">
<g clip-path="url(#clip0)">
<path d="M43.377 9.25H43.3769C38.2308 9.24958 33.0614 10.5523 27.7454 11.8978L27.6814 11.914C22.4331 13.2423 17.0399 14.6073 11.623 14.6073C8.88229 14.6073 6.12549 14.2593 3.35854 13.3815M43.377 9.25L51.3399 42.5709L51.6423 41.6177C48.8754 40.7398 46.1186 40.3918 43.3778 40.3918C37.9606 40.3918 32.5668 41.757 27.3179 43.0856L27.2551 43.1015C21.9388 44.447 16.7691 45.75 11.623 45.75C8.39878 45.75 5.19764 45.2364 2.00606 43.8969L2.0052 43.8965C1.41629 43.65 1 43.0112 1 42.2873V15.0227C1 14.0296 1.80021 13.2891 2.77148 13.2891C2.96104 13.2891 3.15811 13.318 3.35854 13.3815M43.377 9.25C46.6012 9.25 49.8025 9.76361 52.9941 11.1023C53.5839 11.3497 54.0003 11.9884 54.0009 12.7135L43.377 9.25ZM3.35854 13.3815L3.66089 12.4284L3.35875 13.3815C3.35868 13.3815 3.35861 13.3815 3.35854 13.3815ZM19.625 27.5C19.625 32.4292 22.9871 36.75 27.5 36.75C32.011 36.75 35.375 32.4313 35.375 27.5C35.375 22.5697 32.012 18.25 27.5 18.25C22.988 18.25 19.625 22.5697 19.625 27.5Z" stroke="#073F37" stroke-width="2"/>
</g>
<defs>
<clipPath id="clip0">
<rect width="55" height="55" fill="white"/>
</clipPath>
</defs>
</svg>
