<svg width="60" height="70" viewBox="0 0 60 70" fill="none" xmlns="http://www.w3.org/2000/svg">
<path d="M34.761 46.4996C34.4996 46.2133 34.1688 45.9992 33.8271 45.8208C33.0829 45.4327 32.269 45.1973 31.4609 44.9849V51.2466C32.7726 51.0984 34.2784 50.6223 34.967 49.3979C35.2958 48.813 35.3612 48.0943 35.2273 47.4432C35.1546 47.0904 35.0046 46.7666 34.761 46.4996Z" fill="#073F37"/>
<path d="M34.9609 49.4097C34.9636 49.4053 34.9651 49.4025 34.9679 49.3977C34.9656 49.4017 34.9632 49.4056 34.9609 49.4097Z" fill="#073F37"/>
<path d="M25.3097 36.4894C25.0842 36.8186 24.9427 37.1927 24.9037 37.5903C24.8646 37.9887 24.8865 38.432 25.0379 38.807C25.182 39.1645 25.484 39.4283 25.7956 39.6408C26.1453 39.8787 26.5299 40.0645 26.9216 40.2219C27.2502 40.3542 27.6198 40.4807 28.0182 40.6029V34.9368C27.0117 35.1516 25.9119 35.6101 25.3097 36.4894Z" fill="#073F37"/>
<path d="M34.9946 49.3513C34.9864 49.366 34.9775 49.3813 34.9688 49.3974C34.979 49.3787 34.987 49.3648 34.9946 49.3513Z" fill="#073F37"/>
<path d="M35.0273 49.293C35.0295 49.2889 35.0299 49.2886 35.0273 49.293V49.293Z" fill="#073F37"/>
<path d="M33.6669 15.2309C38.9919 10.7576 42.55 0.679908 40.3603 0.239134C37.4508 -0.346752 31.1327 2.22229 28.0789 2.67492C23.7476 3.19789 19.0302 -2.02189 16.3823 0.887612C14.2293 3.25323 17.9258 11.8562 23.7091 15.6041C6.455 24.0842 -17.7968 66.6551 24.5117 69.744C83.0528 74.0182 53.7392 23.4946 33.6669 15.2309ZM38.6944 48.8043C38.5144 50.464 37.6348 51.9648 36.3201 52.9837C34.9318 54.0596 33.1907 54.56 31.4607 54.7002V56.534C31.4607 57.0247 31.2464 57.4992 30.8791 57.824C30.3742 58.2707 29.6324 58.3809 29.0196 58.0986C28.4146 57.8202 28.0172 57.1998 28.0172 56.534V54.5297C27.7205 54.4734 27.426 54.4064 27.135 54.3265C25.5181 53.8823 24.0184 53.0164 22.9229 51.7352C22.3772 51.0966 21.9323 50.372 21.6246 49.5898C21.5443 49.3854 21.4726 49.1772 21.4098 48.9667C21.353 48.7761 21.2944 48.5824 21.2741 48.3838C21.24 48.0506 21.3061 47.7106 21.4614 47.4138C21.7806 46.8032 22.4533 46.4344 23.1402 46.4957C23.8161 46.5556 24.4086 47.0247 24.6214 47.6691C24.687 47.8676 24.7315 48.071 24.8051 48.2673C24.8781 48.4623 24.9662 48.6519 25.0698 48.8325C25.2744 49.1879 25.5307 49.5157 25.8258 49.8002C26.4343 50.3864 27.2093 50.7674 28.0172 50.994V44.1811C26.4374 43.7721 24.8067 43.2439 23.5022 42.2296C22.8682 41.7364 22.3303 41.1237 21.9779 40.3985C21.6062 39.633 21.4522 38.7803 21.4459 37.9334C21.4395 37.0734 21.6029 36.221 21.9616 35.4375C22.2977 34.7038 22.7814 34.0451 23.3746 33.4991C24.6428 32.3318 26.3275 31.6807 28.0173 31.4415V31.2916V29.5379C28.0173 29.0474 28.2316 28.5727 28.5989 28.2479C29.104 27.8013 29.8455 27.691 30.4584 27.9733C31.0632 28.2518 31.4608 28.8721 31.4608 29.5379V31.2916V31.4311C31.686 31.4595 31.9105 31.4934 32.1339 31.5339C33.7932 31.8342 35.4161 32.5194 36.6296 33.7157C37.2044 34.2823 37.675 34.9575 38.0059 35.6937C38.0983 35.8991 38.1792 36.1093 38.2492 36.3236C38.3144 36.5234 38.38 36.7291 38.4111 36.9377C38.4608 37.2705 38.4101 37.6145 38.2676 37.919C37.9758 38.543 37.3212 38.9403 36.6325 38.9108C35.9559 38.8813 35.3428 38.4407 35.1005 37.8082C35.0284 37.6201 34.9923 37.4209 34.9187 37.2333C34.8444 37.0434 34.7482 36.8622 34.6373 36.6911C34.4219 36.3584 34.1427 36.0731 33.824 35.838C33.1338 35.3284 32.2968 35.0629 31.4603 34.9145V41.4342C32.4544 41.6722 33.4493 41.9318 34.4016 42.3073C35.8411 42.8749 37.2051 43.7453 37.9907 45.1177C37.8689 44.9039 37.7503 44.6955 37.9949 45.1248C38.235 45.5464 38.1204 45.3455 37.9998 45.1341C38.6249 46.2357 38.8303 47.553 38.6944 48.8043Z" fill="#073F37"/>
<path d="M34.9437 49.4419C34.9336 49.4598 34.9249 49.4757 34.918 49.4877C34.9239 49.4773 34.9328 49.4617 34.9437 49.4419Z" fill="#073F37"/>
</svg>
