<svg width="30" height="30" viewBox="0 0 30 30" fill="none" xmlns="http://www.w3.org/2000/svg">
<g clip-path="url(#clip0)">
<path d="M21.7443 19.5703C20.1388 20.5898 17.9298 20.9941 16.4708 21.1465L17.6954 22.3535L22.1661 26.8242C23.8009 28.5 21.1407 31.1191 19.4884 29.502C18.3693 28.3652 16.7286 26.7246 15.0177 25.0137L10.547 29.4961C8.89464 31.1074 6.23449 28.4648 7.88683 26.8184C9.02355 25.6816 10.6466 24.041 12.3575 22.3477L13.5646 21.1406C12.1232 20.9883 9.87902 20.6074 8.25597 19.5645C6.34582 18.334 5.50792 17.6133 6.24621 16.1074C6.6798 15.252 7.86925 14.5313 9.44542 15.7734C9.44542 15.7734 11.5724 17.4668 15.006 17.4668C18.4396 17.4668 20.5665 15.7734 20.5665 15.7734C22.1427 14.5371 23.3263 15.252 23.7657 16.1074C24.4923 17.6133 23.6544 18.334 21.7443 19.5703ZM7.4005 7.59961C7.4005 3.39844 10.8165 0 15.0001 0C19.1837 0 22.5997 3.39844 22.5997 7.59961C22.5997 11.7832 19.1837 15.1816 15.0001 15.1816C10.8165 15.1816 7.4005 11.7832 7.4005 7.59961ZM11.2677 7.59961C11.2677 9.65625 12.9435 11.332 15.0001 11.332C17.0568 11.332 18.7325 9.65625 18.7325 7.59961C18.7325 5.52539 17.0568 3.84961 15.0001 3.84961C12.9435 3.84961 11.2677 5.52539 11.2677 7.59961Z" fill="#252525"/>
</g>
<defs>
<clipPath id="clip0">
<rect width="30" height="30" fill="white"/>
</clipPath>
</defs>
</svg>
