<svg width="17" height="17" viewBox="0 0 17 17" fill="none" xmlns="http://www.w3.org/2000/svg">
<path fill-rule="evenodd" clip-rule="evenodd" d="M8.83904 12.4415L10.5466 10.7339C10.7636 10.5169 11.105 10.4867 11.3568 10.6623L13.7432 12.3267C14.0666 12.5523 14.1075 13.0153 13.8288 13.294L13.5217 13.6012C13.0718 14.051 12.4263 14.2457 11.8202 14.0525C10.467 13.6213 7.95956 12.6034 5.88411 10.5279C3.80867 8.45247 2.79076 5.94507 2.35948 4.5918C2.16631 3.98568 2.36104 3.34021 2.81087 2.89038L3.11799 2.58326C3.39676 2.30449 3.85976 2.34543 4.08529 2.6688L5.74973 5.05527C5.92529 5.307 5.89511 5.64838 5.67809 5.8654L3.97051 7.57298" fill="#073F37"/>
<path d="M8.83904 12.4415L10.3295 10.9511C10.6721 10.6084 11.2112 10.5608 11.6086 10.838L13.5914 12.2209C13.9939 12.5016 14.0449 13.0779 13.6979 13.4249V13.4249C13.138 13.9848 12.3339 14.228 11.5835 13.9749C10.1889 13.5046 7.84392 12.4877 5.88411 10.5279C3.92431 8.56811 2.90747 6.22314 2.43711 4.82848C2.18406 4.07815 2.4272 3.27405 2.98712 2.71413V2.71413C3.33412 2.36712 3.91043 2.41808 4.19116 2.82059L5.57405 4.80339C5.85127 5.20086 5.8036 5.73989 5.46094 6.08255L3.97051 7.57298" stroke="#073F37" stroke-width="1.26667" stroke-linecap="round"/>
</svg>
