<svg width="17" height="17" viewBox="0 0 17 17" fill="none" xmlns="http://www.w3.org/2000/svg">
<path fill-rule="evenodd" clip-rule="evenodd" d="M8.83978 12.4068L10.5474 10.6993C10.7644 10.4823 11.1058 10.4521 11.3575 10.6276L13.744 12.2921C14.0673 12.5176 14.1083 12.9806 13.8295 13.2594L13.5224 13.5665C13.0726 14.0163 12.4271 14.211 11.821 14.0179C10.4677 13.5866 7.96029 12.5687 5.88485 10.4932C3.8094 8.4178 2.79149 5.9104 2.36021 4.55713C2.16704 3.95101 2.36177 3.30554 2.81161 2.85571L3.11872 2.54859C3.39749 2.26982 3.86049 2.31076 4.08602 2.63413L5.75046 5.0206C5.92603 5.27233 5.89584 5.61372 5.67882 5.83073L3.97124 7.53831" fill="white"/>
<path d="M8.83978 12.4068L10.3302 10.9164C10.6729 10.5738 11.2119 10.5261 11.6094 10.8033L13.5922 12.1862C13.9947 12.4669 14.0456 13.0432 13.6986 13.3902V13.3902C13.1387 13.9502 12.3346 14.1933 11.5843 13.9402C10.1896 13.4699 7.84465 12.453 5.88485 10.4932C3.92504 8.53344 2.90821 6.18847 2.43784 4.79381C2.18479 4.04348 2.42793 3.23938 2.98786 2.67946V2.67946C3.33486 2.33246 3.91117 2.38342 4.19189 2.78592L5.57478 4.76872C5.852 5.16619 5.80434 5.70522 5.46168 6.04788L3.97124 7.53831" stroke="white" stroke-width="1.26667" stroke-linecap="round"/>
</svg>
