<svg width="60" height="60" viewBox="0 0 60 60" fill="none" xmlns="http://www.w3.org/2000/svg">
<rect x="25" y="7.5" width="17.5" height="17.5" transform="rotate(90 25 7.5)" stroke="#073F37" stroke-width="2" stroke-linecap="round"/>
<rect width="2.5" height="2.5" transform="matrix(-1 0 0 1 17.5 15)" stroke="#073F37" stroke-width="2" stroke-linecap="round"/>
<rect x="25" y="35" width="17.5" height="17.5" transform="rotate(90 25 35)" stroke="#073F37" stroke-width="2" stroke-linecap="round"/>
<rect x="15" y="42.5" width="2.5" height="2.5" stroke="#073F37" stroke-width="2" stroke-linecap="round"/>
<rect x="35" y="50" width="2.5" height="2.5" stroke="#073F37" stroke-width="2" stroke-linecap="round"/>
<rect x="42.5" y="42.5" width="2.5" height="2.5" stroke="#073F37" stroke-width="2" stroke-linecap="round"/>
<rect x="35" y="35" width="2.5" height="2.5" stroke="#073F37" stroke-width="2" stroke-linecap="round"/>
<rect x="50" y="42.5" width="2.5" height="2.5" stroke="#073F37" stroke-width="2" stroke-linecap="round"/>
<rect x="50" y="35" width="2.5" height="2.5" stroke="#073F37" stroke-width="2" stroke-linecap="round"/>
<rect x="50" y="50" width="2.5" height="2.5" stroke="#073F37" stroke-width="2" stroke-linecap="round"/>
<rect x="52.5" y="7.5" width="17.5" height="17.5" transform="rotate(90 52.5 7.5)" stroke="#073F37" stroke-width="2" stroke-linecap="round"/>
<rect x="42.5" y="15" width="2.5" height="2.5" stroke="#073F37" stroke-width="2" stroke-linecap="round"/>
</svg>
