<svg width="60" height="60" viewBox="0 0 60 60" fill="none" xmlns="http://www.w3.org/2000/svg">
<path d="M40.6833 35H42.2096V33.0057C46.1185 32.7463 48.3149 30.5284 48.3149 27.7382C48.3149 24.304 44.9272 23.195 42.9542 22.6942L42.2096 22.4975V16.1388C44.1827 16.3267 45.6159 17.3462 45.8207 18.9738H48.0543C47.9612 16.3624 45.5787 14.377 42.2096 14.1624V12.1055H40.6833V14.1892C37.4911 14.5022 35.0993 16.4519 35.0993 19.26C35.0993 21.7283 36.9606 23.195 39.9388 24.0178L40.6833 24.2235V30.9935C38.7289 30.7967 37.1282 29.8309 36.9606 27.9886H34.5781C34.7922 30.8057 37.0258 32.7732 40.6833 33.0057V35ZM42.2096 30.9935V24.6438L42.2841 24.6617C44.2944 25.1983 46.0812 25.878 46.0812 27.7024C46.0812 29.5 44.4619 30.752 42.2096 30.9935ZM40.6833 22.104C39.2687 21.7194 37.3329 20.9682 37.3329 19.1527C37.3329 17.6055 38.6359 16.425 40.6833 16.1657V22.104Z" fill="#073F37"/>
<path d="M57.9995 24.3157C57.9995 33.9194 50.549 41.6313 41.447 41.6313C32.345 41.6313 24.8945 33.9194 24.8945 24.3157C24.8945 14.7119 32.345 7 41.447 7C50.549 7 57.9995 14.7119 57.9995 24.3157Z" stroke="#073F37" stroke-width="2"/>
<path d="M35.105 36.5285C35.105 46.1323 27.6545 53.8442 18.5525 53.8442C9.45049 53.8442 2 46.1323 2 36.5285C2 26.9248 9.45049 19.2129 18.5525 19.2129C27.6545 19.2129 35.105 26.9248 35.105 36.5285Z" fill="#F5F5F5" stroke="#073F37" stroke-width="2"/>
<path d="M20.9773 38.2441C25.0522 38.2441 26.9466 35.7757 26.9466 32.8066C26.9466 29.8375 25.0522 27.3691 20.9773 27.3691H14.5789V36.2766H11.6836V38.2441H14.5789V39.9612H11.6836V41.9287H14.5789V45.6848H16.7951V41.9287H20.8343V39.9612H16.7951V38.2441H20.9773ZM16.7951 36.2766V29.3366H20.9773C23.5509 29.3366 24.7662 30.8033 24.7662 32.8066C24.7662 34.8099 23.5509 36.2766 20.9773 36.2766H16.7951Z" fill="#073F37"/>
</svg>
