<svg width="60" height="60" viewBox="0 0 60 60" fill="none" xmlns="http://www.w3.org/2000/svg">
<g id="support">
<path id="Path 15" d="M27.5 20L22.9223 17.7111C22.6446 17.5723 22.3384 17.5 22.0279 17.5H18.3284C17.798 17.5 17.2893 17.7107 16.9142 18.0858L13.0858 21.9142C12.7107 22.2893 12.5 22.798 12.5 23.3284L12.5 38.9296C12.5 39.5983 12.8342 40.2228 13.3906 40.5937L26.2575 49.1716C26.9944 49.663 27.9668 49.611 28.6472 49.044L42.5 37.5" stroke="#073F37" stroke-width="2"/>
<path id="Path 15_2" fill-rule="evenodd" clip-rule="evenodd" d="M34.5531 30.1642C33.9496 29.3562 32.8391 29.1239 31.9624 29.6221L23.8249 34.247C23.0423 34.6918 22.059 34.559 21.4224 33.9224L19.0486 31.5486C18.217 30.717 18.279 29.3509 19.1825 28.598L31.9437 17.9636C32.3032 17.664 32.7562 17.5 33.2241 17.5H37.0279C37.3384 17.5 37.6446 17.5723 37.9223 17.7111L46.3944 21.9472C47.072 22.286 47.5 22.9785 47.5 23.7361L47.5 41.4796C47.5 43.4037 45.0489 44.218 43.8976 42.6764L34.5531 30.1642Z" stroke="#073F37" stroke-width="2"/>
<path id="Path 2" d="M2.5 42.5V20" stroke="#073F37" stroke-width="2" stroke-linecap="round"/>
<path id="Path 2_2" d="M2.5 42.5V20" stroke="#073F37" stroke-width="2" stroke-linecap="round"/>
<path id="Path 2_3" d="M57.5 42.5V20" stroke="#073F37" stroke-width="2" stroke-linecap="round"/>
</g>
</svg>
