<svg width="18" height="18" viewBox="0 0 18 18" fill="none" xmlns="http://www.w3.org/2000/svg">
<path d="M16.9679 12.7304V14.9885C16.9688 15.1981 16.923 15.4056 16.8334 15.5977C16.7438 15.7898 16.6124 15.9622 16.4477 16.1039C16.2829 16.2456 16.0884 16.3535 15.8766 16.4207C15.6647 16.4878 15.4403 16.5128 15.2176 16.4939C12.747 16.2422 10.3738 15.4508 8.28869 14.1831C6.34878 13.0274 4.70407 11.4855 3.47137 9.66689C2.11448 7.70324 1.27006 5.46756 1.00652 3.14096C0.986453 2.93282 1.01284 2.72303 1.084 2.52497C1.15515 2.32691 1.26952 2.1449 1.41981 1.99055C1.57011 1.83619 1.75304 1.71287 1.95697 1.62843C2.16089 1.54398 2.38133 1.50027 2.60426 1.50007H5.01291C5.40256 1.49648 5.78031 1.62583 6.07574 1.86403C6.37118 2.10222 6.56415 2.43301 6.61869 2.79472C6.72035 3.51736 6.90889 4.22691 7.18071 4.90981C7.28873 5.17922 7.31211 5.47202 7.24807 5.7535C7.18404 6.03498 7.03527 6.29336 6.81941 6.49801L5.79974 7.45394C6.94269 9.33837 8.60699 10.8986 10.6171 11.9702L11.6367 11.0142C11.855 10.8118 12.1306 10.6724 12.4309 10.6123C12.7311 10.5523 13.0434 10.5742 13.3308 10.6755C14.0592 10.9303 14.8161 11.1071 15.5869 11.2024C15.9769 11.254 16.3331 11.4381 16.5877 11.7199C16.8424 12.0016 16.9776 12.3612 16.9679 12.7304Z" stroke="#073F37" stroke-width="2" stroke-linecap="round" stroke-linejoin="round"/>
</svg>
