<svg width="109" height="57" viewBox="0 0 109 57" fill="none" xmlns="http://www.w3.org/2000/svg">
<path d="M16.6193 32.3248C23.1818 32.3248 26.6051 28.5321 26.6051 23.5179C26.6051 18.5748 23.2386 14.6259 16.6193 14.6259H6.05114V28.6032H1.60511V32.3248H6.05114V34.7679H1.60511V38.5037H6.05114V43.7168H10.4261V38.5037H16.8324V34.7679H10.4261V32.3248H16.6193ZM10.4261 28.6032V18.3759H16.6193C20.4261 18.3759 22.2443 20.5776 22.2443 23.5321C22.2443 26.5151 20.4403 28.6032 16.5625 28.6032H10.4261ZM40.8878 13.2622H37.0952L27.7202 48.0918H31.5128L40.8878 13.2622ZM53.2031 47.3532H55.8736L55.8878 44.1571C61.8963 43.7168 65.3338 40.2793 65.3338 35.677C65.3338 30.4355 60.6605 28.4043 56.9673 27.4952L55.9304 27.2253L55.9588 18.106C58.6151 18.4611 60.4332 19.9384 60.7031 22.2679H64.9361C64.8224 17.9355 61.2429 14.6969 55.973 14.2708L55.9872 10.9895H53.3168L53.3026 14.2992C48.2031 14.8105 44.4673 17.9924 44.4673 22.5804C44.4673 26.6287 47.3651 29.0009 52.0384 30.2651L53.2599 30.5918L53.2315 40.2651C50.4616 39.9242 48.3168 38.4185 48.0895 35.677H43.6861C43.956 40.5776 47.4929 43.731 53.2173 44.1571L53.2031 47.3532ZM55.902 40.2651L55.9304 31.3304C58.8139 32.1259 60.9872 33.177 60.9872 35.6344C60.9872 38.1202 58.9134 39.8674 55.902 40.2651ZM53.2741 26.5151C51.1577 25.8901 48.8281 24.7679 48.8423 22.3248C48.8423 20.1941 50.5327 18.5321 53.2884 18.1202L53.2741 26.5151ZM81.3175 13.2622H77.5249L68.1499 48.0918H71.9425L81.3175 13.2622ZM103.164 24.8248H91.5163C92.5959 20.464 95.38 18.248 98.8885 18.248C101.36 18.248 103.363 19.3418 104.954 20.7054L106.63 17.1117C104.556 15.2651 101.914 14.2282 98.8885 14.2282C92.951 14.2282 88.4624 18.1628 87.1129 24.8248H84.201L83.1357 27.7509H86.7436C86.7152 28.2196 86.701 28.7026 86.701 29.1855C86.701 29.6685 86.7152 30.1373 86.7436 30.5918H84.201L83.1357 33.5463H87.1129C88.4624 40.2083 92.951 44.1145 98.8885 44.1145C101.8 44.1145 104.542 43.177 106.559 41.3588L104.84 37.7793C103.406 38.9725 101.388 40.0946 98.8885 40.0946C95.38 40.0946 92.5959 37.8929 91.5163 33.5463H99.2436L100.621 30.5918H91.076C91.0476 30.1373 91.0334 29.6685 91.0334 29.1855C91.0334 28.6884 91.0476 28.2054 91.076 27.7509H101.815L103.164 24.8248Z" fill="#E0BD70"/>
</svg>
