<svg width="20" height="20" viewBox="0 0 20 20" fill="none" xmlns="http://www.w3.org/2000/svg">
<path d="M6.66602 10.4166L8.74935 12.5L13.3327 7.91663" stroke="#073F37" stroke-linecap="round"/>
<path d="M10.0013 18.3333C10.9726 18.3333 11.8146 17.7794 12.2284 16.9702C12.4156 16.6043 12.9641 16.3771 13.3551 16.5035C14.22 16.783 15.207 16.5794 15.8938 15.8925C16.5807 15.2057 16.7843 14.2187 16.5048 13.3538C16.3784 12.9628 16.6057 12.4142 16.9715 12.2271C17.7807 11.8132 18.3346 10.9713 18.3346 9.99996C18.3346 9.02865 17.7807 8.18671 16.9715 7.77282C16.6057 7.58569 16.3784 7.03713 16.5048 6.64612C16.7844 5.78127 16.5807 4.79423 15.8939 4.10741C15.2071 3.42058 14.22 3.21693 13.3552 3.49646C12.9642 3.62283 12.4156 3.39561 12.2284 3.02975C11.8146 2.22056 10.9726 1.66663 10.0013 1.66663C9.02999 1.66663 8.18805 2.22056 7.77416 3.02975C7.58704 3.39559 7.03847 3.62281 6.64746 3.49644C5.78261 3.21691 4.79558 3.42056 4.10875 4.10739C3.42193 4.79421 3.21828 5.78124 3.4978 6.64609C3.62418 7.03711 3.39695 7.58569 3.0311 7.77282C2.2219 8.18671 1.66797 9.02864 1.66797 9.99996C1.66797 10.9713 2.2219 11.8132 3.03109 12.2271C3.39694 12.4142 3.62416 12.9628 3.49778 13.3538C3.21825 14.2186 3.4219 15.2057 4.10873 15.8925C4.79555 16.5793 5.78258 16.783 6.64743 16.5035C7.03845 16.3771 7.58703 16.6043 7.77416 16.9702C8.18805 17.7794 9.02999 18.3333 10.0013 18.3333Z" stroke="#073F37" stroke-linecap="round"/>
</svg>
