<svg width="30" height="30" viewBox="0 0 30 30" fill="none" xmlns="http://www.w3.org/2000/svg">
<path d="M28.3854 7.79696C28.5781 7.14591 28.3854 6.66675 27.4583 6.66675H24.3906C23.6094 6.66675 23.25 7.07821 23.0573 7.53654C23.0573 7.53654 21.4948 11.3438 19.2865 13.8126C18.5729 14.5261 18.2448 14.7553 17.8542 14.7553C17.6615 14.7553 17.3646 14.5261 17.3646 13.8751V7.79696C17.3646 7.01571 17.1458 6.66675 16.5 6.66675H11.6771C11.1875 6.66675 10.8958 7.03133 10.8958 7.36987C10.8958 8.10946 12 8.28133 12.1146 10.3647V14.8855C12.1146 15.8751 11.9375 16.0574 11.5469 16.0574C10.5052 16.0574 7.97396 12.2345 6.47396 7.85946C6.17188 7.0105 5.875 6.66675 5.08854 6.66675H2.02083C1.14583 6.66675 0.96875 7.07821 0.96875 7.53654C0.96875 8.34904 2.01042 12.3855 5.81771 17.7188C8.35417 21.3595 11.9271 23.3334 15.1771 23.3334C17.1302 23.3334 17.3698 22.8959 17.3698 22.1407C17.3698 18.6615 17.1927 18.3334 18.1719 18.3334C18.625 18.3334 19.4062 18.5626 21.2292 20.3178C23.3125 22.4011 23.6562 23.3334 24.8229 23.3334H27.8906C28.7656 23.3334 29.2083 22.8959 28.9531 22.0313C28.3698 20.2136 24.4271 16.474 24.25 16.224C23.7969 15.6407 23.9271 15.3803 24.25 14.8595C24.2552 14.8542 28 9.58341 28.3854 7.79696Z" fill="#252525"/>
</svg>
