<svg width="28" height="28" viewBox="0 0 28 28" fill="none" xmlns="http://www.w3.org/2000/svg">
<path d="M23.1934 4.68945C20.7383 2.22852 17.4688 0.875 13.9941 0.875C6.82227 0.875 0.986328 6.71094 0.986328 13.8828C0.986328 16.1738 1.58398 18.4121 2.7207 20.3867L0.875 27.125L7.77148 25.3145C9.66992 26.3516 11.8086 26.8965 13.9883 26.8965H13.9941C21.1602 26.8965 27.125 21.0605 27.125 13.8887C27.125 10.4141 25.6484 7.15039 23.1934 4.68945ZM13.9941 24.7051C12.0488 24.7051 10.1445 24.1836 8.48633 23.1992L8.09375 22.9648L4.00391 24.0371L5.09375 20.0469L4.83594 19.6367C3.75195 17.9141 3.18359 15.9277 3.18359 13.8828C3.18359 7.92383 8.03516 3.07227 14 3.07227C16.8887 3.07227 19.6016 4.19727 21.6406 6.24219C23.6797 8.28711 24.9336 11 24.9277 13.8887C24.9277 19.8535 19.9531 24.7051 13.9941 24.7051ZM19.9238 16.6074C19.6016 16.4434 18.002 15.6582 17.7031 15.5527C17.4043 15.4414 17.1875 15.3887 16.9707 15.7168C16.7539 16.0449 16.1328 16.7715 15.9395 16.9941C15.752 17.2109 15.5586 17.2402 15.2363 17.0762C13.3262 16.1211 12.0723 15.3711 10.8125 13.209C10.4785 12.6348 11.1465 12.6758 11.7676 11.4336C11.873 11.2168 11.8203 11.0293 11.7383 10.8652C11.6562 10.7012 11.0059 9.10156 10.7363 8.45117C10.4727 7.81836 10.2031 7.90625 10.0039 7.89453C9.81641 7.88281 9.59961 7.88281 9.38281 7.88281C9.16602 7.88281 8.81445 7.96484 8.51562 8.28711C8.2168 8.61523 7.37891 9.40039 7.37891 11C7.37891 12.5996 8.54492 14.1465 8.70313 14.3633C8.86719 14.5801 10.9941 17.8613 14.2578 19.2734C16.3203 20.1641 17.1289 20.2402 18.1602 20.0879C18.7871 19.9941 20.082 19.3027 20.3516 18.541C20.6211 17.7793 20.6211 17.1289 20.5391 16.9941C20.4629 16.8477 20.2461 16.7656 19.9238 16.6074Z" fill="black"/>
</svg>
