<svg width="18" height="17" viewBox="0 0 18 17" fill="none" xmlns="http://www.w3.org/2000/svg">
<g clip-path="url(#clip0)">
<path d="M16.15 4.60601C16.0694 4.28397 15.9052 3.9889 15.6741 3.75061C15.443 3.51232 15.153 3.33924 14.8336 3.24887C13.6664 2.96387 8.99788 2.96387 8.99788 2.96387C8.99788 2.96387 4.32931 2.96387 3.16216 3.27601C2.84272 3.36639 2.55279 3.53946 2.32165 3.77775C2.09051 4.01604 1.92634 4.31111 1.84573 4.63315C1.63213 5.81764 1.52764 7.01922 1.53359 8.2228C1.52598 9.43543 1.63047 10.6462 1.84573 11.8396C1.9346 12.1516 2.10244 12.4355 2.33305 12.6637C2.56365 12.8919 2.84922 13.0568 3.16216 13.1424C4.32931 13.4546 8.99788 13.4546 8.99788 13.4546C8.99788 13.4546 13.6664 13.4546 14.8336 13.1424C15.153 13.0521 15.443 12.879 15.6741 12.6407C15.9052 12.4024 16.0694 12.1073 16.15 11.7853C16.362 10.6097 16.4665 9.41731 16.4622 8.2228C16.4698 7.01016 16.3653 5.79941 16.15 4.60601V4.60601Z" stroke="#073F37" stroke-width="1.35714" stroke-linecap="round" stroke-linejoin="round"/>
<path d="M7.4707 10.4427L11.3725 8.22381L7.4707 6.00488V10.4427Z" stroke="#073F37" stroke-width="1.35714" stroke-linecap="round" stroke-linejoin="round"/>
</g>
<defs>
<clipPath id="clip0">
<rect width="16.2857" height="16.2857" fill="white" transform="translate(0.855469 0.25)"/>
</clipPath>
</defs>
</svg>
