<svg width="25" height="38" viewBox="0 0 25 38" fill="none" xmlns="http://www.w3.org/2000/svg">
<path d="M19.3379 24.1338H10.6465C10.7441 26.9658 11.4521 29.0817 12.7705 30.4814C14.1051 31.8812 16.0094 32.5811 18.4834 32.5811C20.2738 32.5811 21.9421 32.3125 23.4883 31.7754L24.1719 36.7559C22.2188 37.2279 20.2005 37.4639 18.1172 37.4639C13.9505 37.4639 10.6709 36.292 8.27832 33.9482C5.88574 31.6045 4.62435 28.333 4.49414 24.1338H0.294922V20.6914H4.49414V17.5664H0.294922V14.124H4.51855C4.73014 9.97363 6.05664 6.75098 8.49805 4.45605C10.9395 2.14486 14.2191 0.989258 18.3369 0.989258C20.0622 0.989258 22.0072 1.24154 24.1719 1.74609L23.4883 6.75098C21.8281 6.19759 20.1761 5.9209 18.5322 5.9209C16.0745 5.9209 14.1865 6.62077 12.8682 8.02051C11.5498 9.42025 10.8174 11.4548 10.6709 14.124H19.3379V17.5664H10.6465V20.6914H19.3379V24.1338Z" fill="#E0BD70"/>
</svg>
